<svg height="512" viewBox="0 0 128 128" width="512" xmlns="http://www.w3.org/2000/svg" xmlns:xlink="http://www.w3.org/1999/xlink"><linearGradient id="a" gradientUnits="userSpaceOnUse" x1="100.685" x2="27.315" y1="109.328" y2="35.958"><stop offset="0" stop-color="#ffb655"/><stop offset="1" stop-color="#e57373"/></linearGradient><path d="m107.562 84.435a43.563 43.563 0 0 1 -87.125 0c0-32.071 40.488-81.7 42.211-83.8a1.81 1.81 0 0 1 2.7 0c.088.108 8.968 10.948 18.437 25.52a1.75 1.75 0 0 1 -2.936 1.907c-7.187-11.062-14.028-19.95-16.849-23.515-7.135 9.041-40.064 52.268-40.064 79.888a40.063 40.063 0 0 0 80.125 0c0-11.51-5.634-26.962-16.747-45.926a1.75 1.75 0 1 1 3.02-1.77c11.433 19.508 17.228 35.555 17.228 47.696zm-30.8-21.844-14.288 14.289a1.749 1.749 0 0 0 2.474 2.474l13.052-13.054 3.182 3.181-31.182 31.185-3.182-3.182 2.052-2.051a1.75 1.75 0 0 0 -2.47-2.475l-3.289 3.289a1.751 1.751 0 0 0 0 2.475l5.657 5.656a1.748 1.748 0 0 0 2.474 0l33.652-33.656a1.751 1.751 0 0 0 0-2.475l-5.657-5.656a1.748 1.748 0 0 0 -2.474 0zm-23.781 26.256a1.752 1.752 0 0 0 2.475 0l2.906-2.907a1.749 1.749 0 0 0 -2.474-2.474l-2.907 2.906a1.751 1.751 0 0 0 0 2.475zm33.394 8.841a6.75 6.75 0 1 1 -6.75-6.75 6.758 6.758 0 0 1 6.75 6.75zm-3.5 0a3.25 3.25 0 1 0 -3.25 3.25 3.254 3.254 0 0 0 3.25-3.25zm-26.328-29.829a6.75 6.75 0 1 1 -6.75-6.75 6.758 6.758 0 0 1 6.75 6.75zm-3.5 0a3.25 3.25 0 1 0 -3.25 3.25 3.254 3.254 0 0 0 3.25-3.25z" fill="url(#a)"/></svg>