<svg id="Layer_1" fill="rgba(241, 86, 34, 1)" enable-background="new 0 0 512.013 512.013" height="512" viewBox="0 0 512.013 512.013" width="512" xmlns="http://www.w3.org/2000/svg"><g><path d="m452.708 127.933c5.856-5.857 5.856-15.354 0-21.212l-47.455-47.46c-2.813-2.813-6.629-4.394-10.607-4.394s-7.794 1.581-10.607 4.394l-379.646 379.679c-5.857 5.857-5.857 15.354 0 21.212l47.456 47.46c2.813 2.813 6.628 4.394 10.607 4.394s7.794-1.581 10.607-4.394zm-31.819-10.606-26.243 26.246-26.244-26.245 26.244-26.246zm-358.433 358.465-26.243-26.246 310.977-311.005 26.243 26.245z"/><path d="m470.307 291.239h-18.557v-18.559c0-8.284-6.716-15-15-15s-15 6.716-15 15v18.559h-18.557c-8.284 0-15 6.716-15 15s6.716 15 15 15h18.557v18.56c0 8.284 6.716 15 15 15s15-6.716 15-15v-18.56h18.557c8.284 0 15-6.716 15-15s-6.716-15-15-15z"/><path d="m15 197.759h18.556v18.559c0 8.284 6.716 15 15 15s15-6.716 15-15v-18.559h18.556c8.284 0 15-6.716 15-15s-6.716-15-15-15h-18.556v-18.56c0-8.284-6.716-15-15-15s-15 6.716-15 15v18.56h-18.556c-8.284 0-15 6.716-15 15s6.716 15 15 15z"/><path d="m195.75 180.601c7.846 0 15.363-6.899 15-15-.364-8.127-6.591-15-15-15-7.846 0-15.363 6.899-15 15 .364 8.127 6.591 15 15 15z"/><path d="m350.562 361.495c-7.846 0-15.363 6.899-15 15 .364 8.127 6.591 15 15 15 7.846 0 15.363-6.899 15-15-.364-8.127-6.591-15-15-15z"/><path d="m497 421.751c-7.846 0-15.363 6.899-15 15 .364 8.127 6.591 15 15 15 7.846 0 15.363-6.899 15-15-.364-8.127-6.591-15-15-15z"/><path d="m497 210.729c7.846 0 15.363-6.899 15-15-.364-8.127-6.591-15-15-15-7.846 0-15.363 6.899-15 15 .364 8.127 6.591 15 15 15z"/><path d="m45.125 61.154c7.846 0 15.363-6.899 15-15-.364-8.127-6.591-15-15-15-7.846 0-15.363 6.899-15 15 .364 8.127 6.591 15 15 15z"/><path d="m255.956 90.174c24.858 0 45.081-20.225 45.081-45.084s-20.224-45.084-45.081-45.084-45.081 20.224-45.081 45.083 20.223 45.085 45.081 45.085zm0-60.168c8.316 0 15.081 6.767 15.081 15.083 0 8.317-6.765 15.084-15.081 15.084-8.315 0-15.081-6.767-15.081-15.084 0-8.316 6.765-15.083 15.081-15.083z"/></g></svg>